<svg width="682" height="514" xmlns="http://www.w3.org/2000/svg"><g stroke="#17191F" stroke-width="2.778" fill="none" fill-rule="evenodd" stroke-linecap="round" stroke-linejoin="round"><path d="M378.126 112.393a4.541 4.541 0 1 1-9.083 0 4.542 4.542 0 1 1 9.083 0Zm11.302 72.473V57.678l-7.268-5.815V15.524m-56.832 58.902a4.542 4.542 0 1 0 9.085 0 4.542 4.542 0 0 0-9.085 0Z"/><path d="M341.202 192.029v-67.773l-11.264-10.72V78.832m45.154-28.31a7.29 7.29 0 1 1-14.58 0 7.29 7.29 0 1 1 14.58 0Z"/><path d="M356.743 209.666V97.013l11.083-11.083V57.768m38.295 117.03v-74.794l5.45-5.451V64.365m4.496-5.016a4.541 4.541 0 1 1-9.082 0 4.542 4.542 0 1 1 9.082 0Zm81.977-43.592a4.541 4.541 0 1 1-9.083 0 4.542 4.542 0 1 1 9.083 0ZM328.39 136.301a4.542 4.542 0 1 1-9.084 0 4.542 4.542 0 1 1 9.084 0Zm-4.452 37.226v-32.706m-16.075 34.791v-44.425l11.853-11.856V41.793L308.34 30.415V16.142m-29.533 54.861a4.483 4.483 0 1 1-8.966.001 4.483 4.483 0 0 1 8.966-.001Zm-32.129-28.629a4.483 4.483 0 1 1-8.967 0 4.483 4.483 0 0 1 8.967 0Z"/><path d="m313.78 125.237-6.008-6.007v-19.014h-25.826l-7.891-7.89-.17-16.149m-71.84 18.296a6.368 6.368 0 1 1-12.736 0 6.368 6.368 0 0 1 12.736 0Zm112.89-86.106a6.367 6.367 0 1 1-12.733 0 6.367 6.367 0 0 1 12.733 0Zm73.584.136a6.368 6.368 0 1 1-12.736 0 6.368 6.368 0 0 1 12.736 0Zm69.639 41.715a6.367 6.367 0 1 1-12.733 0 6.367 6.367 0 0 1 12.733 0Z"/><path d="M292.15 177.256v-36.59l-29.056-29.058h-52.369l-11.477-11.479m221.866-6.727a4.483 4.483 0 1 0 8.966 0 4.483 4.483 0 0 0-8.966 0Zm35.261 55.845a4.483 4.483 0 1 0 8.967 0 4.483 4.483 0 0 0-8.967 0Zm-50.285-26.63h11.884l7.892-7.892.17-16.149m88.303-5.554a6.366 6.366 0 1 0 12.732 0 6.367 6.367 0 1 0-12.732 0Z"/><path d="M423.55 176.53v-36.59l29.054-29.057h52.369l11.479-11.48m-274.303 12.119V48.041m210.005 61.667V56.384m-.363 33.736h25.57l16.05-16.05V19.928M592 129.31a4.542 4.542 0 0 0-4.542 4.542 4.542 4.542 0 1 0 9.084 0A4.542 4.542 0 0 0 592 129.31Zm-26.613 251.394a4.484 4.484 0 1 0 0 8.97 4.484 4.484 0 0 0 0-8.97Zm-52.299 27.342a6.367 6.367 0 0 0-6.366 6.368 6.367 6.367 0 1 0 12.733 0 6.368 6.368 0 0 0-6.367-6.368ZM557.543 169.2a6.368 6.368 0 1 0 .001 12.736 6.368 6.368 0 0 0-.001-12.736ZM430.52 335.229h36.587l29.053 29.057v37.069l11.478 9.068m-10.146-257.347a6.367 6.367 0 1 1 0-12.734 6.367 6.367 0 0 1 0 12.734Zm-66.247 50.737h36.587l29.053-29.058V153.6m-.638 231.635h63.472m-61.659-210.03h53.317"/><path d="M517.646 175.568v-25.573l16.05-16.052h54.133m-307.436 119.84h-55.411m-5.902-4.543a4.542 4.542 0 1 1 .002 9.084 4.542 4.542 0 0 1-.001-9.083Zm72.466-11.302H164.372l-5.813 7.268H62.557m118.561 56.839a4.542 4.542 0 1 0 0-9.083 4.542 4.542 0 0 0 0 9.083ZM6.542 272.12a4.541 4.541 0 0 0 4.54-4.543 4.541 4.541 0 1 0-9.082 0 4.542 4.542 0 0 0 4.542 4.543Z"/><path d="M298.708 286.17h-67.765l-10.719 11.265h-34.7m-28.306-45.159a7.29 7.29 0 0 1 7.29 7.29 7.29 7.29 0 1 1-14.58 0 7.29 7.29 0 0 1 7.29-7.29Z"/><path d="M316.342 270.627H203.704l-11.082-11.084h-28.16m117.017-38.3h-74.787l-5.45-5.45h-30.184m-5.015-4.498a4.542 4.542 0 0 1 4.542 4.543 4.542 4.542 0 1 1-9.084 0 4.542 4.542 0 0 1 4.542-4.543Zm-43.586-81.985a4.542 4.542 0 0 1 4.542 4.542 4.542 4.542 0 1 1-9.084 0 4.542 4.542 0 0 1 4.542-4.542Zm120.53 169.674a4.541 4.541 0 1 1 0 9.084 4.542 4.542 0 1 1 0-9.084Zm37.22 4.451h-32.701m34.787 16.079h-44.42l-11.854-11.857h-77.53l-11.377 11.38H84.885m92.811 29.534a4.484 4.484 0 1 1-.002 8.968 4.484 4.484 0 0 1 .002-8.968Zm-28.626 32.133a4.484 4.484 0 1 1 0 8.97 4.484 4.484 0 0 1 0-8.97Z"/><path d="m231.924 313.596-6.006 6.007h-19.01v25.83l-7.893 7.891-16.146.17m18.294 71.849a6.368 6.368 0 1 1 0 12.735 6.368 6.368 0 0 1 0-12.735ZM78.226 312.439a6.368 6.368 0 1 1-.001 12.736 6.368 6.368 0 0 1 .001-12.736Zm15.277 92.547a6.368 6.368 0 1 1-.001 12.735 6.368 6.368 0 0 1 .001-12.735ZM55.506 238.847a6.368 6.368 0 1 1-.002 12.735 6.368 6.368 0 0 1 .002-12.735Zm62.186-69.647a6.368 6.368 0 1 1-.002 12.736 6.368 6.368 0 0 1 .002-12.736Zm-53.176-63.129a6.368 6.368 0 1 1-.002 12.736 6.368 6.368 0 0 1 .002-12.736Zm176.908 29.554a6.367 6.367 0 1 1 0 12.734 6.367 6.367 0 0 1 0-12.734Z"/><path d="M283.937 335.229H247.35l-29.054 29.057v52.375l-11.477 11.48m-6.727-221.891a4.484 4.484 0 1 0-.002-8.968 4.484 4.484 0 0 0 .002 8.967Zm29.212 15.024v-11.886l-7.892-7.892-16.146-.17m77.946 2.487h-36.587l-29.054-29.058v-32.527l16.6-.235M218.21 385.235h-63.474m61.661-210.03h-91.948m72.361.363v-25.573l-16.049-16.052h-54.133m322.118 119.84h55.411m5.901-4.543a4.541 4.541 0 1 0 .001 9.084 4.541 4.541 0 0 0 0-9.083Zm-72.464-11.302h127.173l5.814 7.268h96m-118.56 56.839a4.54 4.54 0 0 1-4.54-4.542 4.541 4.541 0 1 1 4.54 4.542Z"/><path d="M430.432 286.17h67.764l10.72 11.265h34.699m28.307-45.159a7.29 7.29 0 0 0-7.29 7.29 7.29 7.29 0 1 0 14.58 0 7.29 7.29 0 0 0-7.29-7.29Z"/><path d="M412.797 270.627h112.64l11.081-11.084h28.16m-117.017-38.3h74.786l5.45-5.45h30.184m5.015-4.498a4.541 4.541 0 0 0-4.54 4.543 4.541 4.541 0 1 0 9.082 0 4.542 4.542 0 0 0-4.542-4.543Zm-76.944 87.689a4.541 4.541 0 1 0 .001 9.085 4.541 4.541 0 0 0 0-9.085Zm-37.22 4.451h32.702m-34.788 16.079h44.42l11.855-11.857h77.53l11.378 11.38h52.225m-92.81 29.534a4.484 4.484 0 1 0 .002 8.968 4.484 4.484 0 0 0-.002-8.968Z"/><path d="m497.215 313.596 6.007 6.007h19.011v25.83l7.891 7.891 16.147.17m104.643-41.055a6.368 6.368 0 1 0 .001 12.736 6.368 6.368 0 0 0-.001-12.736Zm22.719-73.592a6.368 6.368 0 1 0 .002 12.735 6.368 6.368 0 0 0-.002-12.735ZM529.048 206.25a4.484 4.484 0 1 1 .002-8.968 4.484 4.484 0 0 1-.002 8.967Zm-29.212 15.024v-11.886l7.891-7.892 16.147-.17m-150.289 165.74v55.417m4.541 5.902a4.54 4.54 0 1 0-9.083 0 4.54 4.54 0 0 0 4.542 4.541 4.54 4.54 0 0 0 4.541-4.541Zm11.302-72.473v79.45l-7.268 5.815v18.76m-56.832 6.415a4.542 4.542 0 1 1 9.083-.001 4.542 4.542 0 0 1-9.083.001Zm-21.709 41.106a4.542 4.542 0 1 1 9.084 0 4.542 4.542 0 1 1-9.084 0Z"/><path d="M341.202 348.749v67.773l-11.264 10.72v34.704m45.154 28.309a7.29 7.29 0 1 0-14.579 0 7.29 7.29 0 1 0 14.579 0Z"/><path d="M356.743 331.113v112.651l11.083 11.083v28.163m38.295-117.03v74.795l5.45 5.45v30.189m4.496 5.015a4.541 4.541 0 1 0-9.082 0 4.542 4.542 0 1 0 9.082 0Zm-29.01-16.231a4.542 4.542 0 1 0-9.083 0 4.54 4.54 0 1 0 9.083 0Zm-58.667-60.722a4.542 4.542 0 1 0-9.084 0 4.542 4.542 0 1 0 9.084 0Zm-4.452-37.224v32.704m-16.075-34.79v44.425l11.853 11.855v55.464l-11.377 11.38v14.27m-29.532-32.785a4.483 4.483 0 1 0-8.966-.001 4.483 4.483 0 0 0 8.966 0Z"/><path d="m313.78 415.54-6.008 6.008v19.012h-25.826l-7.891 7.893-.17 16.148m-24.644-83.197a6.367 6.367 0 1 0-12.734 0 6.367 6.367 0 0 0 12.734 0Z"/><path d="M292.15 363.522v36.591l-29.056 29.057h-20.582l.362-41.237m178.24 59.443a4.483 4.483 0 1 1 8.966-.001 4.483 4.483 0 0 1-8.966 0Zm29.458-38.948a4.485 4.485 0 0 1 8.967 0 4.484 4.484 0 1 1-8.967 0Zm-44.482 9.732h11.884l7.892 7.893.17 16.148m86.828 4.285a6.368 6.368 0 1 1 12.735 0 6.368 6.368 0 0 1-12.735 0Z"/><path d="M423.55 364.247v36.591l29.054 29.057h52.369l11.479 11.479"/><path d="M424.045 380.678h31.01v21.765m-31.192-253.558h33.007M112.306 245.54l-9.01 22.037H11.243m175.88 118.313-16.452 25.856h-70.51m54.842-278.739-12.34-21.155H70.98"/></g></svg>